<svg width="89" height="89" viewBox="0 0 89 89" fill="none" xmlns="http://www.w3.org/2000/svg">
<mask id="mask0_237_311" style="mask-type:alpha" maskUnits="userSpaceOnUse" x="0" y="0" width="89" height="89">
<rect width="89" height="89" fill="#D9D9D9"/>
</mask>
<g mask="url(#mask0_237_311)">
<path d="M44.5 61.0447C45.1465 61.0447 45.6885 60.8259 46.1261 60.3884C46.5637 59.9514 46.7825 59.4097 46.7825 58.7632C46.7825 58.1161 46.5637 57.574 46.1261 57.1371C45.6885 56.6995 45.1465 56.4807 44.5 56.4807C43.8535 56.4807 43.3115 56.6995 42.8739 57.1371C42.4363 57.574 42.2175 58.1161 42.2175 58.7632C42.2175 59.4097 42.4363 59.9514 42.8739 60.3884C43.3115 60.8259 43.8535 61.0447 44.5 61.0447ZM42.6458 48.7785H46.3542V26.5285H42.6458V48.7785ZM44.5121 77.875C39.897 77.875 35.558 76.9992 31.4949 75.2477C27.4324 73.4961 23.8984 71.119 20.8927 68.1165C17.8871 65.114 15.5079 61.5831 13.7551 57.5237C12.0017 53.4649 11.125 49.1277 11.125 44.5121C11.125 39.897 12.0008 35.558 13.7524 31.4949C15.5039 27.4324 17.881 23.8984 20.8835 20.8927C23.886 17.8871 27.4169 15.5079 31.4763 13.7551C35.5351 12.0017 39.8723 11.125 44.4879 11.125C49.103 11.125 53.442 12.0008 57.5051 13.7524C61.5676 15.5039 65.1016 17.881 68.1073 20.8835C71.1129 23.886 73.4921 27.4169 75.2449 31.4763C76.9983 35.5351 77.875 39.8723 77.875 44.4879C77.875 49.103 76.9992 53.442 75.2476 57.5051C73.4961 61.5676 71.119 65.1016 68.1165 68.1073C65.114 71.1129 61.5831 73.4921 57.5237 75.2449C53.4649 76.9983 49.1277 77.875 44.5121 77.875ZM44.5 74.1667C52.7819 74.1667 59.7969 71.2927 65.5448 65.5448C71.2927 59.7969 74.1667 52.7819 74.1667 44.5C74.1667 36.2181 71.2927 29.2031 65.5448 23.4552C59.7969 17.7073 52.7819 14.8333 44.5 14.8333C36.2181 14.8333 29.2031 17.7073 23.4552 23.4552C17.7073 29.2031 14.8333 36.2181 14.8333 44.5C14.8333 52.7819 17.7073 59.7969 23.4552 65.5448C29.2031 71.2927 36.2181 74.1667 44.5 74.1667Z" fill="#1C1B1F"/>
</g>
</svg>
