<svg width="170" height="38" viewBox="0 0 170 38" fill="none" xmlns="http://www.w3.org/2000/svg">
<path d="M0.866211 34.7701H12.8543L26.4095 3.45532H37.3733" stroke="#4177FF" stroke-width="6.33048"/>
<path d="M3.8208 37.507V26.223L34.4183 12.3443V1" stroke="#4177FF" stroke-width="6.33048"/>
<path d="M52.9928 4.12304C52.9442 5.14524 52.571 5.29127 51.6786 5.25882C49.9262 5.19392 49.0338 5.74558 49.0338 6.45949C49.0338 7.10851 49.4395 7.77375 51.9544 7.77375C54.4693 7.77375 54.8587 7.09228 54.875 6.57307C54.8912 6.03763 54.5991 5.72935 53.9988 5.51842C53.3498 5.29127 53.3011 4.78828 53.4796 3.92834C53.6256 3.14952 53.8365 2.79256 54.9885 3.00349C56.53 3.27932 57.9902 4.43132 57.9902 6.70287C57.9902 8.97442 56.1568 10.4996 51.9544 10.4996C47.752 10.4996 45.9186 9.00687 45.9186 6.5893C45.9186 4.00947 47.8007 2.43561 51.8571 2.63031C52.8306 2.67899 53.0253 3.10085 52.9928 4.12304ZM50.8349 17.2656C50.8349 18.0119 50.2345 18.1255 49.3259 18.1255C48.4173 18.1255 47.8169 18.0282 47.8169 17.2656V14.3612C47.2004 14.4099 46.5838 14.4748 45.9348 14.5722C44.9613 14.7182 44.5232 14.2801 44.5232 13.3228C44.5232 12.5927 44.5719 12.0248 45.5129 11.8463C46.4702 11.6678 47.9305 11.5056 50.2507 11.6192C51.1918 11.6678 52.6521 11.8139 53.5932 11.8625C55.4753 11.9761 56.6598 12.0248 58.0227 11.8139C58.9151 11.6678 59.272 12.1059 59.3207 13.0632C59.3532 13.7934 59.3207 14.345 58.5419 14.5073C57.8442 14.6533 57.1303 14.7344 56.1892 14.7344V17.2656C56.1892 18.0119 55.5889 18.1255 54.6803 18.1255C53.7716 18.1255 53.1713 18.0282 53.1713 17.2656V14.5884L51.8895 14.4586L50.8349 14.3775V17.2656ZM62.2893 15.1238C61.8512 15.9189 61.2022 15.8215 60.4721 15.5457C59.6284 15.2212 59.2227 14.6695 59.6121 13.9556C60.8777 11.6354 61.981 7.85487 62.6301 4.00947C62.7761 3.18197 63.2791 2.93859 64.3175 3.10085C65.3397 3.2631 65.648 3.62006 65.5019 4.49623C65.2586 5.97273 64.9665 7.44924 64.6095 8.82839C64.7394 8.77972 64.8692 8.73104 65.0314 8.68237C65.9238 8.43899 66.3943 8.55256 66.7026 9.47741C67.2543 11.1324 67.9357 12.7225 68.7146 13.9232C69.1364 14.5722 68.601 15.1401 67.7735 15.5295C66.9785 15.9026 66.4917 15.7728 66.0374 15.1076C65.2261 13.8907 64.4797 12.0248 64.0903 10.7105C63.5711 12.398 62.9546 13.8907 62.2893 15.1238ZM72.8196 16.9897C72.8683 18.0282 72.1706 18.1255 71.3106 18.1255C70.4507 18.1255 69.8503 18.1093 69.8017 17.0709C69.6394 13.5013 69.6394 6.9787 69.8017 3.40913C69.8503 2.3707 70.4507 2.19223 71.3106 2.19223C72.1706 2.19223 72.8683 2.32203 72.8196 3.36045C72.7709 4.56113 72.7222 6.08631 72.706 7.72507H73.7282C74.4746 7.72507 74.6368 8.22806 74.6368 9.088C74.6368 9.94794 74.4746 10.4509 73.7282 10.4509H72.706C72.706 12.8685 72.7385 15.2699 72.8196 16.9897ZM78.0922 7.98468C78.076 8.26051 78.1246 8.45521 78.4491 8.50389C79.3415 8.63369 80.9154 8.52011 82.2621 8.14693C83.1058 7.91977 83.479 8.24428 83.6575 9.25025C83.8197 10.1751 83.6088 10.6294 82.7489 10.8403C81.0776 11.246 79.3091 11.3109 77.5892 11.2297C76.064 11.1648 74.9931 10.4996 75.0743 8.84462C75.1554 7.07606 75.1554 5.51842 75.0743 3.58761C75.0418 2.67899 75.5286 2.3707 76.5832 2.33825C77.4918 2.3058 78.0435 2.40315 78.0922 3.31177C78.1733 4.99921 78.1733 6.45949 78.0922 7.98468ZM87.8761 12.4304C87.9247 13.4688 87.2271 13.5662 86.3671 13.5662C85.5072 13.5662 84.9068 13.55 84.8582 12.5115C84.777 10.5645 84.777 5.03166 84.8582 3.08462C84.9068 2.0462 85.5072 1.86772 86.3671 1.86772C87.2271 1.86772 87.9247 1.99752 87.8761 3.03594C87.8436 3.66873 87.8274 4.65848 87.8274 5.77803H88.8171C89.5635 5.77803 89.7258 6.28101 89.7258 7.14096C89.7258 8.0009 89.5635 8.50389 88.8171 8.50389H87.8112C87.8274 10.094 87.8436 11.5867 87.8761 12.4304ZM79.6011 14.7506C79.6011 15.0265 79.7796 15.2536 80.2988 15.3185C81.9863 15.5132 84.9393 15.3834 86.8052 15.0265C87.8112 14.8318 88.0708 15.205 88.1519 16.0325C88.2493 17.0222 88.233 17.5414 87.3244 17.7199C85.0204 18.158 81.2399 18.2715 78.871 17.947C77.2647 17.7199 76.5021 16.6977 76.5995 15.3348C76.6157 15.1401 76.6157 13.9881 76.567 13.3066C76.5021 12.4629 77.07 12.1384 78.076 12.1384C79.0819 12.1384 79.4713 12.2195 79.5849 13.2255C79.6336 13.5986 79.6011 14.5397 79.6011 14.7506ZM93.1325 10.386C92.4023 10.889 91.8993 10.597 91.2179 9.81814C90.4877 8.97442 90.7473 8.47144 91.4288 7.96845C93.4083 6.50817 95.55 4.20417 96.4424 2.90614C97.059 2.01375 97.3997 1.83527 98.4219 2.45183C99.4766 3.08462 99.6713 3.74986 98.9087 4.73961L98.1623 5.66445C98.6815 5.42107 99.1845 5.45352 99.5739 5.8267C100.288 6.47572 101.489 7.31944 102.624 7.72507C103.403 8.0009 103.549 8.63369 103.192 9.46118C102.754 10.4672 102.348 10.743 101.57 10.4672C100.077 9.93172 98.6653 9.05555 97.5944 8.01713C97.1888 7.61149 96.9941 7.27076 97.0265 6.93003C95.907 8.1307 94.5441 9.39628 93.1325 10.386ZM98.6977 17.2656C98.6977 18.0119 98.0974 18.1255 97.1888 18.1255C96.2802 18.1255 95.6798 18.0282 95.6798 17.2656V14.5722C94.1709 14.5073 92.7593 14.5722 91.2016 14.7993C90.2281 14.9454 89.79 14.5073 89.79 13.55C89.79 12.8198 89.8387 12.2519 90.7798 12.0735C91.7371 11.895 93.1974 11.7327 95.5176 11.8463C96.4586 11.895 97.9189 12.041 98.86 12.0897C100.742 12.2033 101.927 12.2519 103.29 12.041C104.182 11.895 104.539 12.3331 104.588 13.2904C104.62 14.0205 104.588 14.5722 103.809 14.7344C102.543 14.994 101.245 15.0427 98.6977 14.8318V17.2656ZM110.951 10.3374C110.481 11.0675 109.929 11.0999 109.134 10.6132C108.29 10.094 107.998 9.57476 108.501 8.77972C109.588 7.05983 110.545 4.98299 111.016 3.2631C111.292 2.2409 111.681 2.06242 112.687 2.28958C113.677 2.51673 113.985 2.93859 113.758 3.86344C113.596 4.6098 113.32 5.42107 112.995 6.23234C113.482 6.10254 113.92 6.16744 114.229 6.76777C114.472 7.25454 115.121 8.22806 115.527 8.74727C115.997 9.34761 116.013 9.91549 115.186 10.4834C114.277 11.0999 113.726 10.9539 113.158 10.2238C112.671 9.59099 112.298 9.00687 112.038 8.40654C111.681 9.10423 111.308 9.76947 110.951 10.3374ZM122.341 10.2075C122.39 11.246 121.822 11.3433 120.962 11.3433C120.102 11.3433 119.794 11.3271 119.745 10.2887C119.713 9.55854 119.697 8.64992 119.68 7.69262H118.885L118.934 9.88304C118.983 10.9215 118.496 11.0188 117.636 11.0188C116.776 11.0188 116.387 11.0026 116.338 9.96417C116.257 8.01713 116.257 5.03166 116.338 3.08462C116.387 2.0462 116.776 1.86772 117.636 1.86772C118.496 1.86772 118.983 1.99752 118.934 3.03594L118.885 4.96676H119.697L119.745 3.08462C119.794 2.0462 120.102 1.86772 120.962 1.86772C121.822 1.86772 122.39 1.99752 122.341 3.03594C122.26 4.98299 122.26 8.26051 122.341 10.2075ZM117.571 13.0308C117.522 14.053 117.182 14.2314 116.322 14.2314C114.456 14.2314 113.644 14.4261 113.644 14.8967C113.644 15.2861 114.05 15.5944 116.484 15.5944C118.918 15.5944 119.437 15.3185 119.437 14.9129C119.437 14.5722 119.112 14.3937 118.545 14.3288C117.879 14.2477 117.814 13.7122 117.879 12.8361C117.944 12.0086 118.123 11.7976 119.096 11.8301C120.849 11.895 122.617 12.7225 122.617 14.8642C122.617 17.2169 120.913 18.2878 116.484 18.2878C111.925 18.2878 110.464 17.0222 110.464 14.8642C110.464 12.6251 112.395 11.5705 116.338 11.6516C117.279 11.6678 117.603 12.0086 117.571 13.0308ZM126.381 10.7754C125.894 11.4407 125.261 11.2784 124.466 10.9215C123.671 10.5645 123.298 9.93172 123.736 9.31515C124.839 7.77375 126.413 4.72338 126.932 3.06839C127.176 2.3058 127.5 2.0462 128.506 2.20845C129.496 2.3707 130.08 2.87369 129.837 3.71741C129.642 4.39887 129.399 5.11279 129.09 5.84293C129.804 5.55087 130.291 5.71313 130.68 6.34592C131.167 7.17341 132.125 8.45521 132.676 9.1529C133.082 9.65589 132.822 10.2562 131.978 10.7917C131.102 11.3433 130.47 11.1811 129.967 10.5645C129.431 9.89927 128.669 8.81217 128.182 7.83865C127.63 8.87707 127.014 9.89927 126.381 10.7754ZM137.592 10.3211C137.641 11.3595 136.943 11.4569 136.083 11.4569C135.224 11.4569 134.623 11.4407 134.575 10.4023C134.542 9.55854 134.526 8.42276 134.51 7.25454H132.952C132.206 7.25454 132.011 6.7191 132.011 5.85916C132.011 4.99921 132.206 4.5449 132.952 4.5449H134.526L134.575 3.08462C134.623 2.0462 135.224 1.86772 136.083 1.86772C136.943 1.86772 137.641 1.99752 137.592 3.03594C137.511 4.98299 137.511 8.37408 137.592 10.3211ZM132.952 12.9821C132.903 14.0043 132.563 14.1828 131.703 14.1828C129.999 14.1828 129.025 14.4261 129.025 14.8155C129.025 15.3023 129.431 15.5944 131.865 15.5944C134.299 15.5944 134.737 15.2861 134.737 15.0103C134.737 14.7182 134.558 14.5559 133.828 14.3937C133.195 14.2477 133.066 13.7285 133.26 12.8523C133.439 12.0735 133.747 11.8139 134.704 11.9761C136.538 12.2844 137.722 13.3228 137.722 14.9778C137.722 17.4927 135.937 18.2878 131.865 18.2878C127.792 18.2878 126.008 17.2331 126.008 14.8155C126.008 12.7225 127.938 11.4731 131.719 11.6029C132.66 11.6354 132.984 11.9599 132.952 12.9821ZM47.5087 24.1025C47.5087 24.6704 47.9954 25.4817 49.0663 25.4817C50.0723 25.4817 50.6239 24.9787 50.6239 24.0701C50.6239 23.0641 50.0074 22.6585 49.115 22.6585C48.758 22.6585 48.3848 22.7558 48.1739 22.8856C47.7845 23.1128 47.4113 23.0317 46.3567 22.6585C45.6914 22.4151 45.3345 21.7174 45.9348 21.0522C46.6163 20.3058 47.6222 19.9488 49.0501 19.9488C51.9382 19.9488 53.3985 21.685 53.3985 24.0539C53.3985 26.4228 51.9382 28.1751 49.0501 28.1751C46.1782 28.1751 44.7179 26.4228 44.7179 24.3459C44.7179 24.1837 44.7504 23.778 44.7828 23.5995C44.8964 23.0154 45.3831 22.9019 46.2431 23.0479C47.3464 23.2426 47.5087 23.4535 47.5087 24.1025ZM57.6982 27.2665C57.7469 28.3049 57.0492 28.4023 56.1892 28.4023C55.3293 28.4023 54.7289 28.386 54.6803 27.3476C54.5991 25.4006 54.5991 23.0317 54.6803 21.0846C54.7289 20.0462 55.3293 19.8677 56.1892 19.8677C57.0492 19.8677 57.7469 19.9975 57.6982 21.0359L57.6495 22.6423H58.6393C59.3856 22.6423 59.5479 23.1452 59.5479 24.0052C59.5479 24.8651 59.3856 25.3681 58.6393 25.3681H57.6495L57.6982 27.2665ZM49.7478 33.6917C49.6991 34.0325 49.7153 34.1623 50.3805 34.1785C52.4898 34.2272 55.7998 34.0325 56.7247 33.8377C57.5684 33.6593 57.9578 33.7566 58.2012 34.6815C58.3796 35.3467 58.4608 35.7848 57.6008 36.0119C56.2055 36.3851 49.9425 36.4014 48.0928 36.2066C46.5351 36.0444 46.1944 35.1682 46.3891 33.9675L46.5351 33.0265C46.308 32.848 46.2755 32.5884 46.3404 32.2477C46.454 31.6798 46.7136 31.4851 47.9143 31.5824C49.764 31.7285 52.2951 31.7609 54.2909 31.5986C54.5505 31.0632 54.1611 30.9983 53.3822 31.0632C52.1167 31.1606 48.7742 31.1119 47.4924 30.9821C46.6325 30.901 46.2106 30.69 46.3567 29.7003C46.454 29.0675 46.7136 28.8079 47.606 28.8728C49.3259 28.9864 52.9279 29.0026 54.5018 28.8403C56.8869 28.597 57.8767 29.2135 57.4386 31.5337C57.5359 31.6311 57.6171 31.7771 57.6495 31.9556C57.8118 32.7831 57.5035 33.1563 56.4488 33.3023C54.3882 33.5781 51.9057 33.643 49.764 33.5457L49.7478 33.6917ZM69.9801 24.2323C69.9964 23.9565 69.8666 23.8592 69.5745 23.9078C67.4328 24.281 64.3013 24.2648 61.8675 23.7131C60.9102 23.5022 60.7641 22.9343 60.8939 22.0581C61.0237 21.182 61.3645 20.679 62.4354 20.8899C64.9016 21.3929 67.4814 21.3442 69.8179 20.971C72.1219 20.6141 73.1116 21.5876 72.9981 23.3399C72.9169 24.5568 72.9169 26.9906 72.9981 28.6943C73.0305 29.4894 72.3815 29.7165 71.408 29.7165C70.4345 29.7165 70.0288 29.4894 69.9801 28.6943C69.899 27.2827 69.899 25.1572 69.9801 24.2323ZM64.3662 28.0128C64.3662 27.2665 64.9665 27.0231 65.8751 27.0231C66.7837 27.0231 67.3841 27.2503 67.3841 28.0128V32.2963L68.6821 32.3937C70.5643 32.5073 71.7487 32.5559 73.1116 32.345C74.004 32.199 74.361 32.6371 74.4097 33.5944C74.4421 34.3245 74.4097 34.8762 73.6308 35.0384C72.1381 35.3467 70.5967 35.3629 66.9785 34.9897C64.8692 34.7788 63.0844 34.795 61.0237 35.1033C60.0502 35.2494 59.6121 34.8113 59.6121 33.854C59.6121 33.1238 59.6608 32.5559 60.6019 32.3775C61.4132 32.2314 62.5976 32.0854 64.3662 32.1179V28.0128ZM78.5303 29.5218C78.3193 30.7874 78.6925 31.1606 79.7634 31.193C80.6396 31.2255 82.2621 31.0794 83.1058 30.7387C83.9171 30.4142 84.3227 30.7063 84.5985 31.4526C84.9393 32.3775 84.8582 32.9616 84.1767 33.2699C82.976 33.8215 80.1041 34.0974 78.4654 33.9351C77.0051 33.7891 76.2587 33.1725 75.8693 32.2639C75.4799 31.339 75.561 29.7652 75.8369 28.5807C75.269 28.3536 75.1554 27.9155 75.269 27.1205C75.4312 26.1632 75.7071 25.9198 77.1511 26.1145C78.2544 26.2605 79.7309 26.2767 80.9803 26.1632C81.3373 24.0376 80.9154 24.0701 80.3475 24.1188C79.374 24.1999 77.6865 24.1999 76.6319 23.9565C75.8206 23.7618 75.561 23.3237 75.7233 22.3502C75.8855 21.3605 76.2263 21.1171 77.0862 21.2793C78.076 21.4578 79.5362 21.4903 80.7045 21.3767C83.0571 21.1333 84.1605 21.7012 83.7062 26.1145C83.8846 26.293 83.9982 26.5688 84.0631 26.9744C84.2091 27.8993 84.0144 28.3536 82.9922 28.5645C81.7104 28.8241 80.1366 28.9215 78.6438 28.889L78.5303 29.5218ZM88.7522 34.9897C88.8009 36.0282 88.1032 36.1255 87.2433 36.1255C86.3833 36.1255 85.783 36.1093 85.7343 35.0709C85.5721 31.5013 85.5721 24.9787 85.7343 21.4091C85.783 20.3707 86.3833 20.1922 87.2433 20.1922C88.1032 20.1922 88.8009 20.322 88.7522 21.3605C88.59 24.93 88.59 31.4202 88.7522 34.9897ZM98.6328 22.6747C97.1239 22.9019 94.5116 22.9992 92.6944 22.8532C91.8344 22.7883 91.7695 22.2042 91.8344 21.4254C91.8993 20.5979 92.1752 20.2571 93.246 20.3545C94.901 20.5167 97.5457 20.533 99.4603 20.3869C101.132 20.2571 101.943 20.7277 101.975 21.8959C101.991 22.9181 101.553 23.5995 100.645 24.1837C101.229 24.2648 101.829 24.2972 102.332 24.3135C102.949 24.3297 103.192 24.7029 103.127 25.5141C103.062 26.3254 102.851 26.6824 102.219 26.6661C101.342 26.6499 99.509 26.3416 98.6977 26.0334C98.1461 25.8224 98.0001 25.6602 98.0001 25.3681C96.3613 25.9198 94.2845 26.3903 92.2887 26.6175C91.3477 26.731 91.2016 26.293 91.1043 25.4979C90.9907 24.6055 91.1043 24.1999 91.8344 24.135C94.6739 23.9078 97.9838 23.1615 98.6328 22.6747ZM97.2212 27.1854C100.596 27.3314 102.17 27.234 103.338 27.088C104.149 26.9906 104.539 27.3314 104.588 28.3374C104.62 29.0999 104.279 29.4894 103.646 29.5705C102.332 29.749 100.758 29.749 97.1563 29.6029C93.7815 29.4731 92.451 29.4731 90.9096 29.6029C90.1794 29.6678 89.8387 29.3433 89.79 28.4672C89.7414 27.6559 90.0334 27.1854 90.7149 27.1367C92.3212 27.0069 93.8139 27.0393 97.2212 27.1854ZM91.3963 34.9735C91.4775 33.6755 91.4775 32.8318 91.3963 31.3715C91.3314 30.3331 92.0129 30.1546 92.8728 30.1546C93.6192 30.1546 94.1222 30.2357 94.2845 30.9334C94.4467 30.4791 94.7874 30.3168 95.3878 30.3331C96.1017 30.3655 99.0223 30.3655 100.466 30.3168C102.105 30.2682 103.03 30.7712 103.03 32.4261C103.03 32.994 102.997 33.4483 102.722 33.8377C102.981 34 103.127 34.3732 103.127 34.9735C103.127 35.7686 102.851 36.158 101.829 36.158H95.258C94.7388 36.158 94.398 36.0444 94.1709 35.8335C93.9599 36.2229 93.5543 36.2715 92.954 36.2715C92.094 36.2715 91.3314 36.0119 91.3963 34.9735ZM94.3818 32.4099V33.854C94.5441 33.7728 94.7225 33.7242 94.9335 33.7242H99.8822C100.044 33.6106 100.126 33.4646 100.126 33.2374C100.126 32.848 99.9309 32.702 99.5415 32.7182C98.211 32.7669 95.55 32.7993 95.1282 32.7506C94.7874 32.702 94.5441 32.6046 94.3818 32.4099ZM110.963 24.5568C110.947 24.281 110.85 24.2161 110.558 24.2323C109.227 24.3135 107.54 24.281 106.323 24.0376C105.35 23.8429 105.22 23.4211 105.35 22.5449C105.479 21.6687 105.82 21.2144 106.891 21.3767C108.14 21.5714 109.665 21.5876 111.028 21.4578C113.332 21.2306 113.803 21.8634 113.884 23.486C113.949 24.7029 113.868 27.088 113.478 28.6619C113.3 29.4082 112.781 29.5543 111.661 29.3109C110.736 29.1162 110.46 28.8728 110.623 28.094C110.882 26.8284 110.996 25.4655 110.963 24.5568ZM107.102 28.094C107.102 27.3476 107.621 27.1854 108.53 27.1854C109.438 27.1854 109.958 27.3314 109.958 28.094V31.55C111.466 31.5986 112.829 31.6311 113.722 31.5337C114.338 31.4688 114.825 31.6635 114.939 32.6533C115.036 33.4646 114.825 33.9513 114.338 34.0649C113.446 34.2596 111.402 34.2272 109.747 34.1785C108.156 34.1298 107.069 34.1785 106.031 34.3732C105.447 34.4868 104.911 34.2434 104.782 33.2861C104.684 32.5559 104.879 31.9232 105.447 31.8096C105.95 31.7122 106.518 31.6473 107.102 31.5986V28.094ZM118.411 34.9897C118.46 36.0282 117.843 36.1255 116.983 36.1255C116.123 36.1255 115.604 36.1093 115.555 35.0709C115.393 31.5013 115.393 24.9787 115.555 21.4091C115.604 20.3707 116.123 20.1922 116.983 20.1922C117.843 20.1922 118.46 20.322 118.411 21.3605C118.346 22.7234 118.314 24.4919 118.297 26.3741H119.157C119.904 26.3741 120.066 26.8771 120.066 27.737C120.066 28.597 119.904 29.0999 119.157 29.0999H118.297C118.297 31.2904 118.346 33.4321 118.411 34.9897ZM126.04 28.3374C125.569 29.0675 125.018 29.0999 124.223 28.6132C123.379 28.094 123.087 27.5748 123.59 26.7797C124.677 25.0598 125.634 22.983 126.105 21.2631C126.381 20.2409 126.77 20.0624 127.776 20.2896C128.766 20.5167 129.074 20.9386 128.847 21.8634C128.685 22.6098 128.409 23.4211 128.084 24.2323C128.571 24.1025 129.009 24.1674 129.318 24.7678C129.561 25.2545 130.21 26.2281 130.616 26.7473C131.086 27.3476 131.102 27.9155 130.275 28.4834C129.366 29.0999 128.815 28.9539 128.247 28.2238C127.76 27.591 127.387 27.0069 127.127 26.4065C126.77 27.1042 126.397 27.7695 126.04 28.3374ZM137.43 28.0777C137.479 29.1162 136.911 29.2135 136.051 29.2135C135.191 29.2135 134.883 29.1973 134.834 28.1589C134.802 27.4125 134.785 26.4877 134.769 25.5304H133.974L134.023 27.7532C134.072 28.7917 133.585 28.889 132.725 28.889C131.865 28.889 131.475 28.8728 131.427 27.8344C131.346 25.8873 131.346 23.0317 131.427 21.0846C131.475 20.0462 131.865 19.8677 132.725 19.8677C133.585 19.8677 134.072 19.9975 134.023 21.0359L133.974 22.8045H134.785L134.834 21.0846C134.883 20.0462 135.191 19.8677 136.051 19.8677C136.911 19.8677 137.479 19.9975 137.43 21.0359C137.349 22.983 137.349 26.1307 137.43 28.0777ZM126.024 34.9735C126.105 33.6755 126.105 32.4261 126.024 30.9659C125.959 29.9274 126.721 29.6678 127.581 29.6678C128.328 29.6678 128.879 29.7327 129.058 30.4142C129.22 29.9599 129.561 29.8301 130.177 29.8463C130.729 29.8625 133.406 29.8463 134.85 29.7814C136.489 29.7165 137.495 30.3655 137.495 32.0205C137.495 32.5559 137.495 33.1725 137.219 33.6755C137.463 33.8864 137.592 34.2758 137.592 34.8113C137.592 35.6063 137.317 36.158 136.294 36.158H130.129C129.61 36.158 129.236 35.9957 128.993 35.7199C128.75 36.2066 128.23 36.2715 127.581 36.2715C126.721 36.2715 125.959 36.0119 126.024 34.9735ZM129.171 31.9232C129.188 32.5073 129.188 33.1076 129.171 33.6917C129.35 33.5781 129.561 33.5132 129.804 33.5132H134.526C134.656 33.3834 134.704 33.2212 134.704 32.9616C134.704 32.5235 134.38 32.3288 133.99 32.345C132.66 32.4099 130.34 32.4261 129.918 32.3775C129.577 32.3288 129.318 32.1665 129.171 31.9232ZM146.094 20.3707C147.457 20.4681 149.339 20.4681 150.41 20.3869C151.432 20.322 151.594 20.6141 151.627 21.3767C151.659 22.2204 151.546 22.5774 150.734 22.6423L149.793 22.6909L149.777 23.5833L150.491 23.5509C151.513 23.486 151.675 23.7943 151.708 24.5568C151.74 25.4006 151.627 25.7413 150.815 25.79C149.355 25.8873 147.424 25.8386 145.964 25.7737C144.374 25.7088 142.589 25.6439 141.21 25.7575C140.172 25.8224 140.058 25.3843 140.026 24.6542C139.993 23.7943 140.285 23.5509 140.95 23.5184L141.94 23.4697L141.956 22.5449L141.21 22.5936C140.172 22.6747 140.058 22.2528 140.026 21.5065C139.993 20.6628 140.285 20.3869 140.95 20.3545C142.719 20.2409 144.277 20.2409 146.094 20.3707ZM146.094 23.5346L147.165 23.5833L147.197 22.6585L145.964 22.6098L144.569 22.5611L144.552 23.4697L146.094 23.5346ZM145.899 26.3903C149.112 26.5526 150.718 26.439 151.886 26.2605C152.698 26.1307 153.217 26.3092 153.266 27.4774C153.298 28.3374 152.957 28.4509 152.324 28.5321C151.01 28.6943 149.274 28.8403 145.834 28.6619C142.622 28.4996 141.291 28.5321 139.588 28.6294C138.857 28.6781 138.5 28.386 138.468 27.6721C138.419 26.6986 138.711 26.3903 139.393 26.3579C141.161 26.2605 142.654 26.2281 145.899 26.3903ZM143.238 33.7566C143.19 34.1136 143.206 34.2596 143.871 34.2596C146.386 34.3245 149.631 34.1785 150.54 34.0162C151.302 33.8864 151.773 33.8215 152.016 34.6815C152.211 35.3629 152.13 35.8172 151.367 35.9957C150.085 36.304 143.79 36.3851 141.908 36.1904C140.35 36.0282 139.993 35.152 140.204 33.854L140.285 33.3348C140.042 33.1401 140.074 32.8318 140.155 32.4424C140.269 31.9232 140.366 31.7609 141.567 31.8583C143.498 32.0205 146.289 32.0854 148.349 31.8907C148.414 31.4364 148.187 31.3877 147.603 31.4202C146.337 31.5013 142.427 31.4202 141.145 31.2904C140.366 31.2092 140.22 30.8847 140.334 30.1708C140.464 29.4245 140.723 29.2297 141.535 29.2946C143.254 29.4245 146.743 29.4731 148.317 29.3109C150.653 29.0837 151.643 29.6192 151.286 31.8583C151.367 31.9556 151.432 32.0692 151.464 32.2152C151.659 32.8642 151.481 33.3185 150.426 33.4808C148.333 33.7566 145.542 33.8377 143.238 33.7242V33.7566ZM155.764 23.632C156.77 23.8105 158.311 23.8267 159.577 23.7131C159.706 22.9992 159.495 22.9668 158.895 23.0317C158.019 23.129 156.056 23.0641 155.325 22.9019C154.547 22.7234 154.303 22.5449 154.417 21.5065C154.53 20.4843 154.936 20.322 155.78 20.4518C156.607 20.5816 157.889 20.6465 159.22 20.5654C161.572 20.4194 162.562 20.5167 162.221 23.7456C162.319 23.8916 162.4 24.0701 162.448 24.3297C162.627 25.287 162.416 25.7088 161.378 25.8711C160.128 26.082 158.603 26.1632 157.208 26.0983C157.127 26.5526 157.386 26.731 157.954 26.7959C158.83 26.8771 160.793 26.7148 161.686 26.4065C162.448 26.1632 162.789 26.4714 163.016 27.2665C163.227 28.0128 163.114 28.4996 162.27 28.7917C160.891 29.2784 158.262 29.4245 156.477 29.1648C154.741 28.9215 153.995 27.8993 154.222 26.3579L154.336 25.579C154.06 25.3519 154.011 24.9787 154.109 24.3135C154.238 23.5184 154.563 23.4211 155.764 23.632ZM167.624 28.4509C167.673 29.4894 166.975 29.5867 166.115 29.5867C165.255 29.5867 164.655 29.5705 164.606 28.5321C164.525 26.585 164.525 23.0317 164.606 21.0846C164.655 20.0462 165.255 19.8677 166.115 19.8677C166.975 19.8677 167.673 19.9975 167.624 21.0359C167.543 22.983 167.543 26.5039 167.624 28.4509ZM163.211 31.2904C163.162 32.2639 162.822 32.4261 161.962 32.4261C160.096 32.4261 159.284 32.6208 159.284 33.0589C159.284 33.4321 159.69 33.7242 162.124 33.7242C164.558 33.7242 165.077 33.4646 165.077 33.0752C165.077 32.7506 164.752 32.5884 164.185 32.5235C163.519 32.4424 163.454 31.9394 163.519 31.0957C163.584 30.3168 163.763 30.1059 164.736 30.1384C166.489 30.2033 168.257 30.9983 168.257 33.0265C168.257 35.2656 166.553 36.2878 162.124 36.2878C157.565 36.2878 156.104 35.0871 156.104 33.0265C156.104 30.901 158.035 29.895 161.978 29.9761C162.919 29.9923 163.243 30.3168 163.211 31.2904Z" fill="white"/>
</svg>
