<svg width="146" height="24" viewBox="0 0 146 24" fill="none" xmlns="http://www.w3.org/2000/svg">
<mask id="mask0_248_25" style="mask-type:alpha" maskUnits="userSpaceOnUse" x="0" y="0" width="25" height="24">
<rect x="0.5" width="24" height="24" fill="#D9D9D9"/>
</mask>
<g mask="url(#mask0_248_25)">
<path d="M11.5 17H13.5V12.8L15.1 14.4L16.5 13L12.5 9L8.5 13L9.9 14.4L11.5 12.8V17ZM4.5 20C3.95 20 3.47917 19.8042 3.0875 19.4125C2.69583 19.0208 2.5 18.55 2.5 18V6C2.5 5.45 2.69583 4.97917 3.0875 4.5875C3.47917 4.19583 3.95 4 4.5 4H10.5L12.5 6H20.5C21.05 6 21.5208 6.19583 21.9125 6.5875C22.3042 6.97917 22.5 7.45 22.5 8V18C22.5 18.55 22.3042 19.0208 21.9125 19.4125C21.5208 19.8042 21.05 20 20.5 20H4.5ZM4.5 18H20.5V8H11.675L9.675 6H4.5V18Z" fill="#C1C1C1"/>
</g>
<path d="M30.324 16.528C30.82 16.528 31.172 16.88 31.172 17.392C31.172 17.904 30.82 18.272 30.324 18.272C29.812 18.272 29.444 17.904 29.444 17.392C29.444 16.88 29.812 16.528 30.324 16.528ZM39.2613 10.592V11.872L35.2773 16.88H39.2613V18.048H33.6613V16.784L37.6613 11.76H33.6613V10.592H39.2613ZM41.4366 10.576H42.7646V18.048H41.4366V10.576ZM41.2926 7.68C41.2926 7.216 41.6286 6.88 42.1086 6.88C42.5726 6.88 42.9086 7.216 42.9086 7.68C42.9086 8.16 42.5726 8.496 42.1086 8.496C41.6286 8.496 41.2926 8.16 41.2926 7.68ZM48.8811 16.96C50.2411 16.96 51.1531 15.904 51.1531 14.352C51.1531 12.816 50.2411 11.744 48.8811 11.744C47.6491 11.744 46.6091 12.928 46.6091 14.352C46.6091 15.792 47.6491 16.96 48.8811 16.96ZM45.2651 21.456V10.576H46.5931V11.84C47.1531 10.992 48.1771 10.576 48.9291 10.576C51.0091 10.576 52.4811 12.144 52.4811 14.352C52.4811 16.576 51.0091 18.144 48.9291 18.144C48.1451 18.144 47.1531 17.664 46.5931 16.864V21.456H45.2651ZM57.8621 6.624H65.7021V7.744H64.2141V14.4C64.9341 14.352 65.6381 14.288 66.3101 14.208L66.3901 15.232C63.4621 15.712 60.1341 15.76 57.6861 15.76L57.5261 14.592C58.0861 14.592 58.6941 14.592 59.3341 14.576V7.744H57.8621V6.624ZM60.6941 14.56C61.3981 14.544 62.1341 14.528 62.8701 14.48V7.744H60.6941V14.56ZM67.1421 19.216V5.136H68.5341V10.72H70.8061V11.872H68.5341V19.216H67.1421ZM75.6065 5.632C77.7185 5.632 79.2865 6.912 79.2865 8.768C79.2865 10.608 77.7185 11.872 75.6065 11.872C73.5105 11.872 71.9585 10.608 71.9585 8.768C71.9585 6.912 73.5105 5.632 75.6065 5.632ZM73.3025 8.768C73.3025 9.952 74.2945 10.752 75.6065 10.752C76.9505 10.752 77.9265 9.952 77.9265 8.768C77.9265 7.568 76.9505 6.752 75.6065 6.752C74.2945 6.752 73.3025 7.568 73.3025 8.768ZM74.0865 14.08V12.992H83.2225V16.464H75.4625V17.92H83.6865V19.024H74.1345V15.44H81.8465V14.08H74.0865ZM81.8305 12.32V5.136H83.2225V12.32H81.8305ZM89.3424 13.616H102.078V14.768H96.3984V19.232H95.0064V14.768H89.3424V13.616ZM90.1264 11.504C92.7184 11.152 94.9584 9.648 95.0064 7.968H90.5584V6.848H95.0064V5.136H96.3984V6.848H100.846V7.968H96.3984C96.4464 9.616 98.6864 11.152 101.262 11.504L100.766 12.608C98.5584 12.288 96.6064 11.216 95.7104 9.728C94.8144 11.216 92.8624 12.288 90.6224 12.608L90.1264 11.504ZM112.783 5.104H114.191V10.784H116.383V11.952H114.191V19.2H112.783V5.104ZM103.375 15.504C106.927 13.712 108.831 11.072 109.135 7.76H104.063V6.624H110.543C110.543 10.656 108.735 14.272 104.159 16.56L103.375 15.504ZM126.783 5.136H128.175V10.88H130.447V12.032H128.175V19.216H126.783V5.136ZM117.231 8.48V7.36H120.719V5.312H122.127V7.36H125.535V8.48H117.231ZM117.999 12.848C117.999 10.944 119.455 9.6 121.439 9.6C123.439 9.6 124.895 10.944 124.895 12.848C124.895 14.768 123.439 16.096 121.439 16.096C119.455 16.096 117.999 14.768 117.999 12.848ZM119.327 12.848C119.327 14.096 120.207 14.944 121.439 14.944C122.671 14.944 123.551 14.096 123.551 12.848C123.551 11.616 122.671 10.736 121.439 10.736C120.207 10.736 119.327 11.616 119.327 12.848ZM141.472 5.12H142.864V19.2H141.472V5.12ZM131.44 15.504C135.184 13.712 137.024 11.072 137.296 7.76H132.096V6.624H138.704C138.704 10.736 136.928 14.304 132.176 16.608L131.44 15.504Z" fill="#C1C1C1"/>
</svg>
